<mxfile host="app.diagrams.net" modified="2023-05-20T23:10:21.930Z" agent="Mozilla/5.0 (X11; Linux x86_64; rv:109.0) Gecko/20100101 Firefox/112.0" etag="KvKoXSBJRz0wnSp7esnS" version="21.3.0" type="device">
  <diagram id="C5RBs43oDa-KdzZeNtuy" name="Page-1">
    <mxGraphModel dx="1509" dy="799" grid="1" gridSize="10" guides="1" tooltips="1" connect="1" arrows="1" fold="1" page="1" pageScale="1" pageWidth="827" pageHeight="1169" math="0" shadow="0">
      <root>
        <mxCell id="WIyWlLk6GJQsqaUBKTNV-0" />
        <mxCell id="WIyWlLk6GJQsqaUBKTNV-1" parent="WIyWlLk6GJQsqaUBKTNV-0" />
        <mxCell id="rtmC1TArx6BPrZNCoGBI-93" value="" style="rounded=0;whiteSpace=wrap;html=1;" parent="WIyWlLk6GJQsqaUBKTNV-1" vertex="1">
          <mxGeometry x="464" y="1020" width="1620" height="600" as="geometry" />
        </mxCell>
        <mxCell id="rtmC1TArx6BPrZNCoGBI-44" style="edgeStyle=orthogonalEdgeStyle;rounded=0;orthogonalLoop=1;jettySize=auto;html=1;exitX=0.5;exitY=1;exitDx=0;exitDy=0;entryX=0.5;entryY=0;entryDx=0;entryDy=0;" parent="WIyWlLk6GJQsqaUBKTNV-1" source="rtmC1TArx6BPrZNCoGBI-3" target="rtmC1TArx6BPrZNCoGBI-39" edge="1">
          <mxGeometry relative="1" as="geometry" />
        </mxCell>
        <mxCell id="rtmC1TArx6BPrZNCoGBI-3" value="Solicitação recebida de Módulo Periférico" style="rounded=1;whiteSpace=wrap;html=1;fontSize=12;glass=0;strokeWidth=1;shadow=0;fillColor=#dae8fc;strokeColor=#6c8ebf;" parent="WIyWlLk6GJQsqaUBKTNV-1" vertex="1">
          <mxGeometry x="570" y="10" width="120" height="50" as="geometry" />
        </mxCell>
        <mxCell id="rtmC1TArx6BPrZNCoGBI-4" value="Sim " style="edgeStyle=orthogonalEdgeStyle;rounded=0;orthogonalLoop=1;jettySize=auto;html=1;entryX=0.5;entryY=0;entryDx=0;entryDy=0;exitX=0;exitY=0.5;exitDx=0;exitDy=0;" parent="WIyWlLk6GJQsqaUBKTNV-1" source="rtmC1TArx6BPrZNCoGBI-6" edge="1">
          <mxGeometry x="-0.3104" relative="1" as="geometry">
            <mxPoint x="314.5" y="270" as="targetPoint" />
            <mxPoint x="394.5" y="216" as="sourcePoint" />
            <mxPoint as="offset" />
          </mxGeometry>
        </mxCell>
        <mxCell id="rtmC1TArx6BPrZNCoGBI-37" value="Não" style="edgeStyle=orthogonalEdgeStyle;rounded=0;orthogonalLoop=1;jettySize=auto;html=1;exitX=1;exitY=0.5;exitDx=0;exitDy=0;entryX=0.5;entryY=0;entryDx=0;entryDy=0;" parent="WIyWlLk6GJQsqaUBKTNV-1" source="rtmC1TArx6BPrZNCoGBI-6" target="rtmC1TArx6BPrZNCoGBI-36" edge="1">
          <mxGeometry x="-0.2198" relative="1" as="geometry">
            <mxPoint x="730" y="260" as="targetPoint" />
            <mxPoint as="offset" />
          </mxGeometry>
        </mxCell>
        <mxCell id="rtmC1TArx6BPrZNCoGBI-6" value="ID é 255?" style="shape=parallelogram;perimeter=parallelogramPerimeter;whiteSpace=wrap;html=1;fixedSize=1;fillColor=#fff2cc;strokeColor=#d6b656;" parent="WIyWlLk6GJQsqaUBKTNV-1" vertex="1">
          <mxGeometry x="580.5" y="180" width="100.5" height="40" as="geometry" />
        </mxCell>
        <mxCell id="rtmC1TArx6BPrZNCoGBI-10" value="Sim" style="edgeStyle=orthogonalEdgeStyle;rounded=0;orthogonalLoop=1;jettySize=auto;html=1;exitX=0;exitY=0.5;exitDx=0;exitDy=0;entryX=0.5;entryY=0;entryDx=0;entryDy=0;" parent="WIyWlLk6GJQsqaUBKTNV-1" source="rtmC1TArx6BPrZNCoGBI-11" target="rtmC1TArx6BPrZNCoGBI-67" edge="1">
          <mxGeometry x="-0.5116" relative="1" as="geometry">
            <mxPoint x="170" y="310" as="targetPoint" />
            <mxPoint as="offset" />
            <Array as="points">
              <mxPoint x="185" y="290" />
            </Array>
          </mxGeometry>
        </mxCell>
        <mxCell id="rtmC1TArx6BPrZNCoGBI-35" value="Não" style="edgeStyle=orthogonalEdgeStyle;rounded=0;orthogonalLoop=1;jettySize=auto;html=1;exitX=1;exitY=0.5;exitDx=0;exitDy=0;entryX=0.5;entryY=0;entryDx=0;entryDy=0;" parent="WIyWlLk6GJQsqaUBKTNV-1" source="rtmC1TArx6BPrZNCoGBI-11" target="rtmC1TArx6BPrZNCoGBI-84" edge="1">
          <mxGeometry x="-0.6923" relative="1" as="geometry">
            <mxPoint x="435" y="320" as="targetPoint" />
            <Array as="points">
              <mxPoint x="450" y="290" />
            </Array>
            <mxPoint as="offset" />
          </mxGeometry>
        </mxCell>
        <mxCell id="rtmC1TArx6BPrZNCoGBI-11" value="&lt;div&gt;O servidor notificou a&lt;/div&gt;&lt;div&gt;&amp;nbsp;&lt;u&gt;entrada&lt;/u&gt; de um novo módulo?&lt;/div&gt;" style="shape=parallelogram;perimeter=parallelogramPerimeter;whiteSpace=wrap;html=1;fixedSize=1;fillColor=#d5e8d4;strokeColor=#82b366;" parent="WIyWlLk6GJQsqaUBKTNV-1" vertex="1">
          <mxGeometry x="211" y="270" width="197" height="40" as="geometry" />
        </mxCell>
        <mxCell id="rtmC1TArx6BPrZNCoGBI-49" style="edgeStyle=orthogonalEdgeStyle;rounded=0;orthogonalLoop=1;jettySize=auto;html=1;exitX=0.5;exitY=1;exitDx=0;exitDy=0;endArrow=none;endFill=0;" parent="WIyWlLk6GJQsqaUBKTNV-1" source="rtmC1TArx6BPrZNCoGBI-20" edge="1">
          <mxGeometry relative="1" as="geometry">
            <mxPoint x="310" y="430" as="targetPoint" />
            <Array as="points">
              <mxPoint x="185" y="431" />
              <mxPoint x="309" y="431" />
            </Array>
          </mxGeometry>
        </mxCell>
        <mxCell id="rtmC1TArx6BPrZNCoGBI-20" value="Retorna o novo ID do módulo" style="rounded=1;whiteSpace=wrap;html=1;fontSize=12;glass=0;strokeWidth=1;shadow=0;fillColor=#e1d5e7;strokeColor=#9673a6;" parent="WIyWlLk6GJQsqaUBKTNV-1" vertex="1">
          <mxGeometry x="130" y="381" width="110" height="40" as="geometry" />
        </mxCell>
        <mxCell id="rtmC1TArx6BPrZNCoGBI-50" style="edgeStyle=orthogonalEdgeStyle;rounded=0;orthogonalLoop=1;jettySize=auto;html=1;entryX=0;entryY=0.5;entryDx=0;entryDy=0;exitX=0.5;exitY=1;exitDx=0;exitDy=0;" parent="WIyWlLk6GJQsqaUBKTNV-1" source="rtmC1TArx6BPrZNCoGBI-84" target="rtmC1TArx6BPrZNCoGBI-90" edge="1">
          <mxGeometry relative="1" as="geometry">
            <mxPoint x="440" y="420" as="sourcePoint" />
            <mxPoint x="309.5" y="471" as="targetPoint" />
            <Array as="points">
              <mxPoint x="450" y="431" />
              <mxPoint x="310" y="431" />
              <mxPoint x="310" y="554" />
            </Array>
          </mxGeometry>
        </mxCell>
        <mxCell id="rtmC1TArx6BPrZNCoGBI-46" value="Sim" style="edgeStyle=orthogonalEdgeStyle;rounded=0;orthogonalLoop=1;jettySize=auto;html=1;entryX=0.5;entryY=0;entryDx=0;entryDy=0;" parent="WIyWlLk6GJQsqaUBKTNV-1" source="rtmC1TArx6BPrZNCoGBI-36" target="rtmC1TArx6BPrZNCoGBI-51" edge="1">
          <mxGeometry x="-0.3296" relative="1" as="geometry">
            <mxPoint x="829.5" y="320" as="targetPoint" />
            <Array as="points">
              <mxPoint x="829.5" y="290" />
            </Array>
            <mxPoint as="offset" />
          </mxGeometry>
        </mxCell>
        <mxCell id="rtmC1TArx6BPrZNCoGBI-47" value="Não" style="edgeStyle=orthogonalEdgeStyle;rounded=0;orthogonalLoop=1;jettySize=auto;html=1;exitX=1;exitY=0.5;exitDx=0;exitDy=0;entryX=0.5;entryY=0;entryDx=0;entryDy=0;" parent="WIyWlLk6GJQsqaUBKTNV-1" source="rtmC1TArx6BPrZNCoGBI-36" edge="1">
          <mxGeometry x="-0.2547" relative="1" as="geometry">
            <mxPoint x="1271.5" y="330.0000000000001" as="targetPoint" />
            <mxPoint x="1122" y="290" as="sourcePoint" />
            <Array as="points">
              <mxPoint x="1271.5" y="290" />
            </Array>
            <mxPoint as="offset" />
          </mxGeometry>
        </mxCell>
        <mxCell id="rtmC1TArx6BPrZNCoGBI-36" value="&lt;div&gt;ID está registrado &lt;br&gt;&lt;/div&gt;&lt;div&gt;na rede?&lt;/div&gt;" style="shape=parallelogram;perimeter=parallelogramPerimeter;whiteSpace=wrap;html=1;fixedSize=1;fillColor=#fff2cc;strokeColor=#d6b656;" parent="WIyWlLk6GJQsqaUBKTNV-1" vertex="1">
          <mxGeometry x="969.5" y="270" width="140" height="40" as="geometry" />
        </mxCell>
        <mxCell id="rtmC1TArx6BPrZNCoGBI-42" value="Sim" style="edgeStyle=orthogonalEdgeStyle;rounded=0;orthogonalLoop=1;jettySize=auto;html=1;entryX=0.5;entryY=0;entryDx=0;entryDy=0;" parent="WIyWlLk6GJQsqaUBKTNV-1" source="rtmC1TArx6BPrZNCoGBI-39" target="rtmC1TArx6BPrZNCoGBI-6" edge="1">
          <mxGeometry relative="1" as="geometry" />
        </mxCell>
        <mxCell id="rtmC1TArx6BPrZNCoGBI-43" value="Não" style="edgeStyle=orthogonalEdgeStyle;rounded=0;orthogonalLoop=1;jettySize=auto;html=1;entryX=0;entryY=0.5;entryDx=0;entryDy=0;" parent="WIyWlLk6GJQsqaUBKTNV-1" source="rtmC1TArx6BPrZNCoGBI-39" target="rtmC1TArx6BPrZNCoGBI-45" edge="1">
          <mxGeometry relative="1" as="geometry">
            <mxPoint x="735.5" y="100" as="targetPoint" />
          </mxGeometry>
        </mxCell>
        <mxCell id="rtmC1TArx6BPrZNCoGBI-39" value="O ID é válido?" style="shape=parallelogram;perimeter=parallelogramPerimeter;whiteSpace=wrap;html=1;fixedSize=1;fillColor=#fff2cc;strokeColor=#d6b656;" parent="WIyWlLk6GJQsqaUBKTNV-1" vertex="1">
          <mxGeometry x="572.75" y="80" width="115.75" height="40" as="geometry" />
        </mxCell>
        <mxCell id="rtmC1TArx6BPrZNCoGBI-45" value="Voltar ao &lt;i&gt;main loop&lt;/i&gt;" style="rounded=1;whiteSpace=wrap;html=1;fontSize=12;glass=0;strokeWidth=1;shadow=0;fillColor=#f8cecc;strokeColor=#b85450;" parent="WIyWlLk6GJQsqaUBKTNV-1" vertex="1">
          <mxGeometry x="735.5" y="77" width="70" height="46" as="geometry" />
        </mxCell>
        <mxCell id="rtmC1TArx6BPrZNCoGBI-58" value="Não" style="edgeStyle=orthogonalEdgeStyle;rounded=0;orthogonalLoop=1;jettySize=auto;html=1;exitX=1;exitY=0.5;exitDx=0;exitDy=0;entryX=0.5;entryY=0;entryDx=0;entryDy=0;" parent="WIyWlLk6GJQsqaUBKTNV-1" source="rtmC1TArx6BPrZNCoGBI-51" edge="1" target="VYEcWH3I7JOOVbeq6wzv-3">
          <mxGeometry x="-0.5579" relative="1" as="geometry">
            <mxPoint x="939.5" y="380" as="targetPoint" />
            <mxPoint as="offset" />
            <Array as="points">
              <mxPoint x="936" y="340" />
            </Array>
          </mxGeometry>
        </mxCell>
        <mxCell id="rtmC1TArx6BPrZNCoGBI-85" value="Sim" style="edgeStyle=orthogonalEdgeStyle;rounded=0;orthogonalLoop=1;jettySize=auto;html=1;exitX=0;exitY=0.5;exitDx=0;exitDy=0;endArrow=classic;endFill=1;entryX=0.5;entryY=0;entryDx=0;entryDy=0;" parent="WIyWlLk6GJQsqaUBKTNV-1" source="rtmC1TArx6BPrZNCoGBI-51" target="rtmC1TArx6BPrZNCoGBI-88" edge="1">
          <mxGeometry x="-0.5439" relative="1" as="geometry">
            <mxPoint x="629.5" y="339.9473684210527" as="targetPoint" />
            <Array as="points">
              <mxPoint x="715" y="340" />
              <mxPoint x="715" y="381" />
            </Array>
            <mxPoint x="1" as="offset" />
          </mxGeometry>
        </mxCell>
        <mxCell id="rtmC1TArx6BPrZNCoGBI-51" value="&lt;div&gt;O servidor notificou a&lt;/div&gt;&lt;div&gt;&amp;nbsp;&lt;u&gt;saída&lt;/u&gt; de um módulo?&lt;/div&gt;" style="shape=parallelogram;perimeter=parallelogramPerimeter;whiteSpace=wrap;html=1;fixedSize=1;fillColor=#d5e8d4;strokeColor=#82b366;" parent="WIyWlLk6GJQsqaUBKTNV-1" vertex="1">
          <mxGeometry x="749.5" y="320" width="160" height="40" as="geometry" />
        </mxCell>
        <mxCell id="rtmC1TArx6BPrZNCoGBI-68" style="edgeStyle=orthogonalEdgeStyle;rounded=0;orthogonalLoop=1;jettySize=auto;html=1;exitX=0.5;exitY=1;exitDx=0;exitDy=0;entryX=0.5;entryY=0;entryDx=0;entryDy=0;" parent="WIyWlLk6GJQsqaUBKTNV-1" source="rtmC1TArx6BPrZNCoGBI-67" target="rtmC1TArx6BPrZNCoGBI-20" edge="1">
          <mxGeometry relative="1" as="geometry" />
        </mxCell>
        <mxCell id="rtmC1TArx6BPrZNCoGBI-67" value="Central gera um novo ID e registra a alteração na rede" style="rounded=1;whiteSpace=wrap;html=1;fontSize=12;glass=0;strokeWidth=1;shadow=0;fillColor=#dae8fc;strokeColor=#6c8ebf;" parent="WIyWlLk6GJQsqaUBKTNV-1" vertex="1">
          <mxGeometry x="97.5" y="320" width="175" height="40" as="geometry" />
        </mxCell>
        <mxCell id="rtmC1TArx6BPrZNCoGBI-69" value="Sim" style="edgeStyle=orthogonalEdgeStyle;rounded=0;orthogonalLoop=1;jettySize=auto;html=1;exitX=0;exitY=0.5;exitDx=0;exitDy=0;entryX=0.5;entryY=0;entryDx=0;entryDy=0;" parent="WIyWlLk6GJQsqaUBKTNV-1" source="rtmC1TArx6BPrZNCoGBI-71" target="VYEcWH3I7JOOVbeq6wzv-15" edge="1">
          <mxGeometry x="-0.5116" relative="1" as="geometry">
            <mxPoint x="1130" y="370" as="targetPoint" />
            <mxPoint as="offset" />
            <Array as="points">
              <mxPoint x="1145" y="350" />
            </Array>
          </mxGeometry>
        </mxCell>
        <mxCell id="rtmC1TArx6BPrZNCoGBI-70" value="Não" style="edgeStyle=orthogonalEdgeStyle;rounded=0;orthogonalLoop=1;jettySize=auto;html=1;exitX=1;exitY=0.5;exitDx=0;exitDy=0;entryX=0.5;entryY=0;entryDx=0;entryDy=0;" parent="WIyWlLk6GJQsqaUBKTNV-1" source="rtmC1TArx6BPrZNCoGBI-71" edge="1">
          <mxGeometry x="-0.5584" relative="1" as="geometry">
            <Array as="points">
              <mxPoint x="1399.5" y="350" />
            </Array>
            <mxPoint as="offset" />
            <mxPoint x="1399.5" y="380" as="targetPoint" />
          </mxGeometry>
        </mxCell>
        <mxCell id="rtmC1TArx6BPrZNCoGBI-71" value="&lt;div&gt;O servidor notificou a&lt;/div&gt;&lt;div&gt;&amp;nbsp;&lt;u&gt;entrada&lt;/u&gt; de um novo módulo?&lt;/div&gt;" style="shape=parallelogram;perimeter=parallelogramPerimeter;whiteSpace=wrap;html=1;fixedSize=1;fillColor=#d5e8d4;strokeColor=#82b366;" parent="WIyWlLk6GJQsqaUBKTNV-1" vertex="1">
          <mxGeometry x="1175.5" y="330" width="197" height="40" as="geometry" />
        </mxCell>
        <mxCell id="rtmC1TArx6BPrZNCoGBI-72" style="edgeStyle=orthogonalEdgeStyle;rounded=0;orthogonalLoop=1;jettySize=auto;html=1;exitX=0.445;exitY=1;exitDx=0;exitDy=0;entryX=0.5;entryY=0;entryDx=0;entryDy=0;endArrow=none;endFill=0;exitPerimeter=0;" parent="WIyWlLk6GJQsqaUBKTNV-1" source="rtmC1TArx6BPrZNCoGBI-78" edge="1">
          <mxGeometry relative="1" as="geometry">
            <Array as="points">
              <mxPoint x="1146" y="491" />
              <mxPoint x="1274" y="491" />
            </Array>
            <mxPoint x="1274" y="531" as="targetPoint" />
            <mxPoint x="1149.5" y="481" as="sourcePoint" />
          </mxGeometry>
        </mxCell>
        <mxCell id="rtmC1TArx6BPrZNCoGBI-74" style="edgeStyle=orthogonalEdgeStyle;rounded=0;orthogonalLoop=1;jettySize=auto;html=1;entryX=1;entryY=0.5;entryDx=0;entryDy=0;exitX=0.5;exitY=1;exitDx=0;exitDy=0;" parent="WIyWlLk6GJQsqaUBKTNV-1" target="rtmC1TArx6BPrZNCoGBI-90" edge="1">
          <mxGeometry relative="1" as="geometry">
            <Array as="points">
              <mxPoint x="1400" y="491" />
              <mxPoint x="1274" y="491" />
              <mxPoint x="1274" y="554" />
            </Array>
            <mxPoint x="1399.5" y="420" as="sourcePoint" />
            <mxPoint x="1274" y="531" as="targetPoint" />
          </mxGeometry>
        </mxCell>
        <mxCell id="rtmC1TArx6BPrZNCoGBI-75" value="&lt;div&gt;Retorna&lt;/div&gt;&lt;div&gt;ID não validado (0)&lt;br&gt;&lt;/div&gt;" style="rounded=1;whiteSpace=wrap;html=1;fontSize=12;glass=0;strokeWidth=1;shadow=0;fillColor=#e1d5e7;strokeColor=#9673a6;" parent="WIyWlLk6GJQsqaUBKTNV-1" vertex="1">
          <mxGeometry x="1344.5" y="380" width="110" height="40" as="geometry" />
        </mxCell>
        <mxCell id="rtmC1TArx6BPrZNCoGBI-78" value="Central registra o ID do novo sensor" style="rounded=1;whiteSpace=wrap;html=1;fontSize=12;glass=0;strokeWidth=1;shadow=0;fillColor=#dae8fc;strokeColor=#6c8ebf;" parent="WIyWlLk6GJQsqaUBKTNV-1" vertex="1">
          <mxGeometry x="1094" y="450" width="116" height="31" as="geometry" />
        </mxCell>
        <mxCell id="rtmC1TArx6BPrZNCoGBI-84" value="Retorna solicitação de entrada negada negada ao módulo (0)" style="rounded=1;whiteSpace=wrap;html=1;fontSize=12;glass=0;strokeWidth=1;shadow=0;fillColor=#e1d5e7;strokeColor=#9673a6;" parent="WIyWlLk6GJQsqaUBKTNV-1" vertex="1">
          <mxGeometry x="360" y="380" width="180" height="40" as="geometry" />
        </mxCell>
        <mxCell id="VYEcWH3I7JOOVbeq6wzv-1" style="edgeStyle=orthogonalEdgeStyle;rounded=0;orthogonalLoop=1;jettySize=auto;html=1;entryX=0.5;entryY=0;entryDx=0;entryDy=0;" parent="WIyWlLk6GJQsqaUBKTNV-1" source="rtmC1TArx6BPrZNCoGBI-88" target="VYEcWH3I7JOOVbeq6wzv-0" edge="1">
          <mxGeometry relative="1" as="geometry" />
        </mxCell>
        <mxCell id="rtmC1TArx6BPrZNCoGBI-88" value="&lt;div&gt;Retorna&lt;/div&gt;&lt;div&gt;ID não validado (0)&lt;br&gt;&lt;/div&gt;" style="rounded=1;whiteSpace=wrap;html=1;fontSize=12;glass=0;strokeWidth=1;shadow=0;fillColor=#e1d5e7;strokeColor=#9673a6;" parent="WIyWlLk6GJQsqaUBKTNV-1" vertex="1">
          <mxGeometry x="660" y="381" width="110" height="40" as="geometry" />
        </mxCell>
        <mxCell id="rtmC1TArx6BPrZNCoGBI-90" value="Voltar ao &lt;i&gt;main loop&lt;/i&gt;" style="rounded=1;whiteSpace=wrap;html=1;fontSize=12;glass=0;strokeWidth=1;shadow=0;fillColor=#f8cecc;strokeColor=#b85450;" parent="WIyWlLk6GJQsqaUBKTNV-1" vertex="1">
          <mxGeometry x="681" y="531" width="70" height="46" as="geometry" />
        </mxCell>
        <mxCell id="rtmC1TArx6BPrZNCoGBI-95" value="Protocolo de entrada dos periféricos na rede" style="rounded=1;whiteSpace=wrap;html=1;fontSize=12;glass=0;strokeWidth=1;shadow=0;fillColor=#f8cecc;strokeColor=#b85450;gradientColor=#ea6b66;" parent="WIyWlLk6GJQsqaUBKTNV-1" vertex="1">
          <mxGeometry x="1330" y="10" width="260" height="40" as="geometry" />
        </mxCell>
        <mxCell id="VYEcWH3I7JOOVbeq6wzv-2" style="edgeStyle=orthogonalEdgeStyle;rounded=0;orthogonalLoop=1;jettySize=auto;html=1;entryX=0.5;entryY=0;entryDx=0;entryDy=0;" parent="WIyWlLk6GJQsqaUBKTNV-1" source="VYEcWH3I7JOOVbeq6wzv-0" target="rtmC1TArx6BPrZNCoGBI-90" edge="1">
          <mxGeometry relative="1" as="geometry" />
        </mxCell>
        <mxCell id="VYEcWH3I7JOOVbeq6wzv-0" value="Libera o ID que estava registrado para uso de outro sensor futuramente" style="rounded=1;whiteSpace=wrap;html=1;fontSize=12;glass=0;strokeWidth=1;shadow=0;fillColor=#dae8fc;strokeColor=#6c8ebf;" parent="WIyWlLk6GJQsqaUBKTNV-1" vertex="1">
          <mxGeometry x="644.5" y="445" width="143" height="50" as="geometry" />
        </mxCell>
        <mxCell id="VYEcWH3I7JOOVbeq6wzv-9" value="Sim" style="edgeStyle=orthogonalEdgeStyle;rounded=0;orthogonalLoop=1;jettySize=auto;html=1;entryX=0;entryY=0.5;entryDx=0;entryDy=0;" parent="WIyWlLk6GJQsqaUBKTNV-1" source="VYEcWH3I7JOOVbeq6wzv-3" target="VYEcWH3I7JOOVbeq6wzv-15" edge="1">
          <mxGeometry x="-0.1295" y="1" relative="1" as="geometry">
            <mxPoint x="1094.5" y="461" as="targetPoint" />
            <Array as="points">
              <mxPoint x="1050" y="401" />
              <mxPoint x="1050" y="401" />
            </Array>
            <mxPoint as="offset" />
          </mxGeometry>
        </mxCell>
        <mxCell id="VYEcWH3I7JOOVbeq6wzv-13" value="Não" style="edgeStyle=orthogonalEdgeStyle;rounded=0;orthogonalLoop=1;jettySize=auto;html=1;entryX=1;entryY=0.5;entryDx=0;entryDy=0;" parent="WIyWlLk6GJQsqaUBKTNV-1" source="VYEcWH3I7JOOVbeq6wzv-3" target="rtmC1TArx6BPrZNCoGBI-88" edge="1">
          <mxGeometry x="-0.2186" relative="1" as="geometry">
            <mxPoint as="offset" />
          </mxGeometry>
        </mxCell>
        <mxCell id="VYEcWH3I7JOOVbeq6wzv-3" value="&lt;div&gt;Unique ID é equivalente&lt;/div&gt;&lt;div&gt;&amp;nbsp;ao registrado pela central?&lt;/div&gt;" style="shape=parallelogram;perimeter=parallelogramPerimeter;whiteSpace=wrap;html=1;fixedSize=1;fillColor=#fff2cc;strokeColor=#d6b656;" parent="WIyWlLk6GJQsqaUBKTNV-1" vertex="1">
          <mxGeometry x="844" y="384" width="184.99" height="34" as="geometry" />
        </mxCell>
        <mxCell id="VYEcWH3I7JOOVbeq6wzv-18" style="edgeStyle=orthogonalEdgeStyle;rounded=0;orthogonalLoop=1;jettySize=auto;html=1;" parent="WIyWlLk6GJQsqaUBKTNV-1" source="VYEcWH3I7JOOVbeq6wzv-15" edge="1">
          <mxGeometry relative="1" as="geometry">
            <mxPoint x="1145" y="449" as="targetPoint" />
          </mxGeometry>
        </mxCell>
        <mxCell id="VYEcWH3I7JOOVbeq6wzv-15" value="Retorna o próprio ID do solicitante" style="rounded=1;whiteSpace=wrap;html=1;fontSize=12;glass=0;strokeWidth=1;shadow=0;fillColor=#e1d5e7;strokeColor=#9673a6;" parent="WIyWlLk6GJQsqaUBKTNV-1" vertex="1">
          <mxGeometry x="1090" y="381" width="110" height="40" as="geometry" />
        </mxCell>
      </root>
    </mxGraphModel>
  </diagram>
</mxfile>
